<svg xmlns="http://www.w3.org/2000/svg" viewBox="0 0 27.33 22.81"><path d="M26.84 6.59l-1.47-1.91-1.89-2.31L22.13.7 21.9.46A1.87 1.87 0 0 0 20.64 0a1.93 1.93 0 0 0-1.38.62l-.1.09v.05a.23.23 0 0 1-.16.07l-1.57 1.79L16 4.31c-.64-.84-1.27-1.62-1.77-2.28L13.41 1A2.36 2.36 0 0 0 9.8.83L8.18 2.62 6.76 4.31 5 2l-.84-1A2.33 2.33 0 0 0 .9.54a2.35 2.35 0 0 0-.42 3.27L2 5.72 3.85 8 5.2 9.7a1.75 1.75 0 0 0 .23.24 1.87 1.87 0 0 0 1.26.46 1.91 1.91 0 0 0 1.41-.65l.08-.09.08-.09 1.55-1.76a1.53 1.53 0 0 0 .19-.19l.64-.73.8-.91L13.1 8l1.35 1.7a1.75 1.75 0 0 0 .23.24 1.87 1.87 0 0 0 1.26.46 1.84 1.84 0 0 0 1.22-.47l.09-.07a.46.46 0 0 1 .07-.07l1.8-2 1.45-1.69 1.78 2.27.81 1.07a2.33 2.33 0 1 0 3.68-2.85z" fill="#f78b00"/><path d="M26.84 6.59l-1.47-1.91-1.89-2.31L22.13.7 21.9.46A1.87 1.87 0 0 0 20.64 0a1.93 1.93 0 0 0-1.38.62l-.1.09v.05a.23.23 0 0 1-.16.07l-1.57 1.79L16 4.31c-.64-.84-1.27-1.62-1.77-2.28L13.41 1A2.36 2.36 0 0 0 9.8.83L8.18 2.62 6.76 4.31 5 2l-.84-1A2.33 2.33 0 0 0 .9.54a2.35 2.35 0 0 0-.42 3.27L2 5.72 3.85 8 5.2 9.7a1.75 1.75 0 0 0 .23.24 1.87 1.87 0 0 0 1.26.46 1.91 1.91 0 0 0 1.41-.65l.08-.09.08-.09 1.55-1.76a1.53 1.53 0 0 0 .19-.19l.64-.73.8-.91L13.1 8l1.35 1.7a1.75 1.75 0 0 0 .23.24 1.87 1.87 0 0 0 1.26.46 1.84 1.84 0 0 0 1.22-.47l.09-.07a.46.46 0 0 1 .07-.07l1.8-2 1.45-1.69 1.78 2.27.81 1.07a2.33 2.33 0 1 0 3.68-2.85zM26.84 19l-1.47-1.92s-1-1.24-1.89-2.31l-1.36-1.67a2.5 2.5 0 0 0-.23-.23 1.88 1.88 0 0 0-1.26-.47 1.93 1.93 0 0 0-1.38.62l-.1.1v.05a.23.23 0 0 1-.07.07L17.43 15 16 16.72c-.64-.84-1.27-1.62-1.77-2.27l-.82-1.07a2.36 2.36 0 0 0-3.61-.14L8.18 15l-1.42 1.72c-.65-.84-1.27-1.62-1.76-2.27l-.82-1.07a2.32 2.32 0 0 0-3.7 2.84L2 18.13l1.89 2.31 1.31 1.67a1.75 1.75 0 0 0 .23.24 1.9 1.9 0 0 0 2.67-.19l.08-.09.08-.07 1.55-1.76A1.53 1.53 0 0 0 10 20l.64-.73.8-.9 1.68 2 1.36 1.67a1.75 1.75 0 0 0 .23.24 1.87 1.87 0 0 0 1.26.46 1.84 1.84 0 0 0 1.22-.47l.09-.07a.46.46 0 0 1 .07-.07l1.8-2 1.42-1.68c.65.84 1.27 1.62 1.78 2.27l.81 1.07A2.32 2.32 0 1 0 26.84 19z" fill="#f78b00"/><path d="M26.84 19l-1.47-1.92s-1-1.24-1.89-2.31l-1.36-1.67a2.5 2.5 0 0 0-.23-.23 1.88 1.88 0 0 0-1.26-.47 1.93 1.93 0 0 0-1.38.62l-.1.1v.05a.23.23 0 0 1-.07.07L17.43 15 16 16.72c-.64-.84-1.27-1.62-1.77-2.27l-.82-1.07a2.36 2.36 0 0 0-3.61-.14L8.18 15l-1.42 1.72c-.65-.84-1.27-1.62-1.76-2.27l-.82-1.07a2.32 2.32 0 0 0-3.7 2.84L2 18.13l1.89 2.31 1.31 1.67a1.75 1.75 0 0 0 .23.24 1.9 1.9 0 0 0 2.67-.19l.08-.09.08-.07 1.55-1.76A1.53 1.53 0 0 0 10 20l.64-.73.8-.9 1.68 2 1.36 1.67a1.75 1.75 0 0 0 .23.24 1.87 1.87 0 0 0 1.26.46 1.84 1.84 0 0 0 1.22-.47l.09-.07a.46.46 0 0 1 .07-.07l1.8-2 1.42-1.68c.65.84 1.27 1.62 1.78 2.27l.81 1.07A2.32 2.32 0 1 0 26.84 19z" fill="#f78b00"/></svg>