<svg xmlns="http://www.w3.org/2000/svg" viewBox="0 0 26.04 23.21"><path d="M26 4.26a3.68 3.68 0 0 0 0-1.14v-.07a3.65 3.65 0 0 0-3-2.88L22.22 0a2.06 2.06 0 0 0-.35 0 6.29 6.29 0 0 0-6.19 4c-.11.21-.37.76-.92 2.1v.06c-.38.89-.67 1.83-1 2.75v.1c-.22.69-.43 1.39-.65 2.08a2.75 2.75 0 0 1-.09.29c-.12-.42-.22-.79-.32-1.15s-.25-.83-.38-1.24a28 28 0 0 0-1-2.83V6.1c-.55-1.34-.81-1.89-.92-2.1a6.29 6.29 0 0 0-6.23-4 2 2 0 0 0-.35 0l-.74.17a3.64 3.64 0 0 0-3 2.88v.07A3.68 3.68 0 0 0 0 4.26a2.84 2.84 0 0 0 .1.45 9.48 9.48 0 0 0 1.62 3.23 4.77 4.77 0 0 0 .56.7 1.7 1.7 0 0 0 2.56-.11 1.37 1.37 0 0 0 .23-1.2 5.64 5.64 0 0 0-.68-1.76c-.21-.37-.39-.75-.62-1.13A1 1 0 0 1 4 3.27 1.22 1.22 0 0 1 4.71 3h.2a1 1 0 0 1 .41.12 1.74 1.74 0 0 1 .54.57c.17.3.29.66.46 1A46.73 46.73 0 0 1 8 9.11c.25.78.5 1.55.73 2.33q1 3.38 1.8 6.82c.2.9.37 1.8.54 2.71.05.25.14.6.2.84a1.59 1.59 0 0 0 1 1.21 1.71 1.71 0 0 0 .79.19 1.62 1.62 0 0 0 1-.29 2 2 0 0 0 .93-1.5c.15-1.15.38-2.28.64-3.4.48-2.07 1-4.13 1.61-6.17.23-.78.6-2 .86-2.74a46.73 46.73 0 0 1 1.69-4.39c.17-.39.29-.75.46-1a1.74 1.74 0 0 1 .54-.57 1 1 0 0 1 .34-.15h.2a1.22 1.22 0 0 1 .73.29.93.93 0 0 1 .2 1.17c-.19.38-.4.76-.61 1.13A5.92 5.92 0 0 0 21 7.33a1.37 1.37 0 0 0 .24 1.2 1.7 1.7 0 0 0 2.56.11 4.77 4.77 0 0 0 .56-.7 9.67 9.67 0 0 0 1.54-3.18 2.84 2.84 0 0 0 .1-.45z" fill="#da0457"/></svg>