<svg xmlns="http://www.w3.org/2000/svg" viewBox="0 0 21.85 23.74"><path d="M21.55 17.24a29.79 29.79 0 0 0-2.78-7c-.2-.37-.37-.77-.61-1.23a4.2 4.2 0 0 0 1-.45c1.83-1.07.94-2.07.94-3.66 0-.31-.15-.21-.23-.5C19.65 3.68 21 1.81 18 1.56c-2.37-.21-2.77 0-3.73 1.16-.54.64-2.1.7-2.1 1.53v.22A1.91 1.91 0 0 0 10 5.77S9.27 9 8.6 12.12C7.9 9 7.19 5.76 7.19 5.76A1.77 1.77 0 0 0 6 4.53a3 3 0 0 0-2.21 0L.56 6.85a1.78 1.78 0 0 0 0 2.59 2.15 2.15 0 0 0 2.69.21L4 9.09l2.74 12.18a1.85 1.85 0 0 0 1.88 1.32 1.86 1.86 0 0 0 1.88-1.33l2.65-12.17c.23.08.46.14.69.2.39.77.8 1.56 1.23 2.38a28.27 28.27 0 0 1 2.72 6.16 9 9 0 0 1 .21 1.86c0 .4-.15.19-.2.32a9.16 9.16 0 0 1-2.62-1.14l-.18-.12a2.06 2.06 0 0 0-.83-.18 1.89 1.89 0 0 0-1.93 1.84 1.81 1.81 0 0 0 .74 1.45l.77.44.86.47.11.06c1.49.73 3.54 1.36 5.24.5a3.81 3.81 0 0 0 1.92-3.7 11.24 11.24 0 0 0-.33-2.39zm-4.78-11.4a1.3 1.3 0 1 1 1.3-1.3 1.3 1.3 0 0 1-1.3 1.3z" fill="#5fa700"/><path d="M16.77 0a4.59 4.59 0 1 0 4.59 4.59A4.59 4.59 0 0 0 16.77 0zm0 5.84a1.3 1.3 0 1 1 1.3-1.3 1.3 1.3 0 0 1-1.3 1.3z" fill="#5fa700"/></svg>