<svg xmlns="http://www.w3.org/2000/svg" viewBox="0 0 22.51 23.29"><path d="M21.33 16.28a2 2 0 0 0-2.57 1 6 6 0 0 1-.57 1 4.33 4.33 0 0 1-.53.72l-.11.13a1.08 1.08 0 0 1-.85.28 1 1 0 0 1-1-1 6.17 6.17 0 0 1 .25-.89v-.1a39.66 39.66 0 0 1 1.61-4.08c.17-.39.35-.78.51-1.14 1.34-3 2-4.44 1.54-5.75A9.28 9.28 0 0 0 12.37.08a8.26 8.26 0 0 0-1-.07h-.23a8.26 8.26 0 0 0-1 .07 9.28 9.28 0 0 0-7.28 6.37c-.47 1.31.2 2.79 1.54 5.75l.51 1.14a39.66 39.66 0 0 1 1.61 4.08 1.17 1.17 0 0 1-.16 1 1.17 1.17 0 0 1-1.89 0 5.9 5.9 0 0 1-.7-1.2 2 2 0 0 0-3.61 1.62c.31.73 2 4.34 5.11 4.45 2 .07 3.82-1.39 5.32-4.31a1.82 1.82 0 0 1-.15.23 1.86 1.86 0 0 0 .28-1 2.18 2.18 0 0 0-.05-.43 27.28 27.28 0 0 0-1.49-4.41c-.41-1-.84-1.92-1.23-2.79l-.39-.86A4.13 4.13 0 0 1 11 3.92h.61A4.13 4.13 0 0 1 15 9.72l-.39.86c-.39.87-.82 1.81-1.23 2.79a27.28 27.28 0 0 0-1.49 4.41 1.73 1.73 0 0 0-.05.38 2.46 2.46 0 0 0 .11.79 1.55 1.55 0 0 0 .12.22.15.15 0 0 0 0 .06c1.47 2.76 3.22 4.13 5.19 4.07 3.09-.11 4.8-3.72 5.11-4.45a2 2 0 0 0-1.04-2.57z" fill="#da0457"/></svg>