<svg xmlns="http://www.w3.org/2000/svg" viewBox="0 0 28.3 20.14"><path d="M25.74 15.92H1.93A2 2 0 0 0 0 18a2 2 0 0 0 1.92 2.11h23.82A2 2 0 0 0 27.67 18a2 2 0 0 0-1.93-2.08zM26.24 10.28l-4.58-.08a12.13 12.13 0 0 0 .18-2.09 8 8 0 0 0-3.08-6.63 7.93 7.93 0 0 0-9.64.32A7.81 7.81 0 0 0 6.41 8a11.33 11.33 0 0 0 .23 2.19l-4.51-.09a2.1 2.1 0 0 0-.07 4.2l5 .08h2.22a1.9 1.9 0 0 0 1.63-.89 2.08 2.08 0 0 0 .16-1.91 11.41 11.41 0 0 1-.72-2.25 3.75 3.75 0 0 1-.13-.77 2.62 2.62 0 0 1 0-.28 3.88 3.88 0 1 1 7.75 0 4.36 4.36 0 0 1 0 .51V9a12.81 12.81 0 0 1-.66 2.69 2.07 2.07 0 0 0 .22 1.84 1.92 1.92 0 0 0 1.58.85h4.48l2.62.05a2.1 2.1 0 0 0 .07-4.2z" fill="#f78b00"/></svg>