<svg xmlns="http://www.w3.org/2000/svg" viewBox="0 0 22.52 25.45"><path d="M22.5 23.23a2 2 0 0 0-.79-1.33c-.11-.08-.2-.16-.36-.26L20.24 21a7.53 7.53 0 0 1-2.85-2.72A17.44 17.44 0 0 1 16.22 15v-.18-.09h4.29a2.07 2.07 0 0 0 2-1.82 2.16 2.16 0 0 0-1.6-2.45 2.71 2.71 0 0 0-.41 0h-4.2c0-.19.08-.39.13-.6a9.59 9.59 0 0 1 .92-2.61 7.47 7.47 0 0 1 2.84-2.71c.42-.25.72-.45 1.12-.66a2.12 2.12 0 0 0 1.2-1.59A2 2 0 0 0 20.84 0h-.43a2.6 2.6 0 0 0-.73.18 14.73 14.73 0 0 0-1.92 1A12.82 12.82 0 0 0 15.56 3 12.62 12.62 0 0 0 12 10.11v.34h-1.47v-.34a14.69 14.69 0 0 0-.29-1.47A12.36 12.36 0 0 0 7 3a12.44 12.44 0 0 0-2.25-1.8 13.55 13.55 0 0 0-1.92-1 2.54 2.54 0 0 0-.72-.2h-.44A2 2 0 0 0 0 2.23a2.11 2.11 0 0 0 1.24 1.59c.4.21.7.41 1.11.66A7.57 7.57 0 0 1 5.2 7.19a9.59 9.59 0 0 1 .92 2.61c0 .21.09.41.13.6H2a3 3 0 0 0-.41 0A2.15 2.15 0 0 0 0 12.89a2.06 2.06 0 0 0 2 1.82h4.36v.27a17.44 17.44 0 0 1-1.17 3.28 7.67 7.67 0 0 1-2.47 2.5l-.41.24c-.41.25-.71.44-1.1.65A2.1 2.1 0 0 0 0 23.23a2 2 0 0 0 1.62 2.19h.43a2.23 2.23 0 0 0 .72-.17 15.08 15.08 0 0 0 1.9-1c.25-.16.49-.33.72-.5a11.77 11.77 0 0 0 1.49-1.25 12.21 12.21 0 0 0 3.2-5.68c.11-.4.25-1.38.33-2v-.13h1.64v.13c.08.6.22 1.58.32 2a12.29 12.29 0 0 0 3.2 5.68 13.27 13.27 0 0 0 2.2 1.76c.24.15.49.29.74.43s.77.41 1.17.59a2.23 2.23 0 0 0 .71.17h.43a2 2 0 0 0 1.68-2.22z" fill="#009fe2"/></svg>