<svg xmlns="http://www.w3.org/2000/svg" viewBox="0 0 17.12 23.18"><path d="M17.08 2.19A1.81 1.81 0 0 0 15.8.08a1.83 1.83 0 0 0-2.28 1.22c-.74 2.46-1.95 4-3.48 4.53A3.7 3.7 0 0 1 8.71 6a5.67 5.67 0 0 1-4.26-2.62 10.64 10.64 0 0 1-.84-2.06v-.13a.14.14 0 0 0 0-.06A1.85 1.85 0 0 0 1.47 0 1.82 1.82 0 0 0 0 2.19a9.32 9.32 0 0 0 1.89 3.93c.65.92 1.35 1.79 1.49 2a8.38 8.38 0 0 0-3.32 6.63 8.5 8.5 0 0 0 17 0 8.35 8.35 0 0 0-2.55-6 9.85 9.85 0 0 0-.78-.67 23.05 23.05 0 0 0 2.51-3.65 11.11 11.11 0 0 0 .84-2.24zM8.56 19.66a4.8 4.8 0 1 1 4.8-4.8 4.8 4.8 0 0 1-4.8 4.8z" fill="#5fa700"/></svg>