<svg xmlns="http://www.w3.org/2000/svg" viewBox="0 0 22.28 23.19"><path d="M21.9 3.19A5.07 5.07 0 0 0 20.71 1 3 3 0 0 0 19 0H18.19c-.21.06-.42.1-.62.17a3.78 3.78 0 0 0-2 1.66c-.21.34-.37.71-.55 1.07a4.29 4.29 0 0 0-1.8-.22 3.82 3.82 0 0 0-2.19 1 3.79 3.79 0 0 0-2.83-1 3.59 3.59 0 0 0-1.53.5A3.76 3.76 0 0 0 4.1 1.3c-1.69-.25-3.25.86-4 2.84a1.81 1.81 0 0 0 1 2.31 1.79 1.79 0 0 0 2.23-1c.13-.22.21-.41.28-.5a4.08 4.08 0 0 1 .63 2.14v11.13a1.77 1.77 0 0 0 3.53 0V6.88a.74.74 0 0 1 1.48 0v11.33a1.76 1.76 0 0 0 .24.88 1.78 1.78 0 0 0 3.39-.77V7.07a1.72 1.72 0 0 1 0-.2.75.75 0 0 1 1.49 0V19c-.12.28-.23.56-.35.83s-.26.62-.41.92a1.67 1.67 0 0 0 1.28 2.43h.49a1.64 1.64 0 0 0 1.21-1c.24-.52.46-1.05.69-1.57v-.1h.05l.06.11c.31.55.61 1.1.93 1.64a1.66 1.66 0 0 0 3.06-.49 1.7 1.7 0 0 0-.18-1.19c-.53-.95-1-1.91-1.56-2.86.16-.46.4-1 .42-1.11a40.92 40.92 0 0 0 1.44-4.78A26.83 26.83 0 0 0 22.27 7a12.38 12.38 0 0 0-.37-3.81zm-3.46.37h.09c.08.28.18.55.24.83a10.15 10.15 0 0 1 .15 2.75 25.17 25.17 0 0 1-.67 4.23c-.07-.34-.16-.68-.22-1-.12-.76-.27-1.51-.33-2.28a9.23 9.23 0 0 1 .45-3.83c.04-.26.18-.46.29-.7z" fill="#5fa700"/></svg>